<svg version="1.2" xmlns="http://www.w3.org/2000/svg" xmlns:xlink="http://www.w3.org/1999/xlink" overflow="visible" preserveAspectRatio="none" viewBox="0 0 3108.018084669133 3612.7001003009027" width="3108.018084669133" height="3612.7001003009027"><g transform="translate(0, 0)"><g transform="rotate(0) translate(0,0) translate(-76.0180846691328, -230.66900702106318) rotate(0)"><g transform="translate(329.42678469947344, -1913.3190035403175)"><path d="M-212.6150138681014 1937.2619972364316 C-62.12079448003954 1991.0196328335066 353.6644771793506 1859.0272252647364 301.4174274295323 2169.029590541207 C249.17037767971468 2479.03195581767 -74.53416968328672 2815.913138892673 57.219260120601774 3056.0305778929405 C188.9726899244904 3296.1480168932117 628.1004024271583 3454.990424862504 976.7926692357239 3050.0162366978734 C1325.4849360442922 2645.042048533238 1784.3503294992106 2831.23547477929 1892.251845286881 3039.0983324213075 C2000.15336107455 3246.961190063324 1975.1656416289795 3702.1091714518993 2304.5492161387015 3461.9917324516255 C2633.932790648427 3221.8742934513566 2778.1800801750956 2841.987001898707 2778.1800801750956 2841.987001898707 C2778.1800801750956 2841.987001898707 2782.8494425998597 5495.822279207633 2766.9481665890394 5495.822279207633 C2751.046890578223 5495.822279207633 -319.0351849382374 5526.284939379342 -319.0351849382374 5526.284939379342 C-319.0351849382374 5526.284939379342 -348.6922668085658 1937.0668026812668 -307.8032713521875 1937.0668026812668 C-266.91427589580854 1937.0668026812668 -363.10923325616494 1883.5043616393584 -212.6150138681014 1937.2619972364316 Z" style="stroke: rgb(140, 140, 140); stroke-width: 0; stroke-linecap: butt; stroke-linejoin: miter; fill: rgb(119, 171, 57);" vector-effect="non-scaling-stroke"/></g></g><defs><path id="path-1671641110540528" d="M-212.6150138681014 1937.2619972364316 C-62.12079448003954 1991.0196328335066 353.6644771793506 1859.0272252647364 301.4174274295323 2169.029590541207 C249.17037767971468 2479.03195581767 -74.53416968328672 2815.913138892673 57.219260120601774 3056.0305778929405 C188.9726899244904 3296.1480168932117 628.1004024271583 3454.990424862504 976.7926692357239 3050.0162366978734 C1325.4849360442922 2645.042048533238 1784.3503294992106 2831.23547477929 1892.251845286881 3039.0983324213075 C2000.15336107455 3246.961190063324 1975.1656416289795 3702.1091714518993 2304.5492161387015 3461.9917324516255 C2633.932790648427 3221.8742934513566 2778.1800801750956 2841.987001898707 2778.1800801750956 2841.987001898707 C2778.1800801750956 2841.987001898707 2782.8494425998597 5495.822279207633 2766.9481665890394 5495.822279207633 C2751.046890578223 5495.822279207633 -319.0351849382374 5526.284939379342 -319.0351849382374 5526.284939379342 C-319.0351849382374 5526.284939379342 -348.6922668085658 1937.0668026812668 -307.8032713521875 1937.0668026812668 C-266.91427589580854 1937.0668026812668 -363.10923325616494 1883.5043616393584 -212.6150138681014 1937.2619972364316 Z" vector-effect="non-scaling-stroke"/></defs></g></svg>