<svg version="1.2" xmlns="http://www.w3.org/2000/svg" xmlns:xlink="http://www.w3.org/1999/xlink" overflow="visible" preserveAspectRatio="none" viewBox="0 0 1788 978" width="1788" height="978"><g transform="translate(0, 0)"><defs><path id="path-1672941257771797" d="M500.893617021277 729.7828716737806 C500.893617021277 729.7828716737806 575.1671732522792 668.2837162837164 575.1671732522792 668.2837162837164 C575.1671732522792 668.2837162837164 1573.3313069908813 504.14385614385617 1458.2978723404262 757.1928071928071 C1343.2644376899696 1010.2417582417582 1277.949217881237 1690.8321062500152 472.8145896656532 1582.2891787638205 C-332.3200385499302 1473.7462512776247 -320.6443768996957 1581.3523586461386 -320.6443768996957 1581.3523586461386 C-320.6443768996957 1581.3523586461386 -10.961351224454498 1374.0417852422113 -10.961351224454498 1374.0417852422113 C-10.961351224454498 1374.0417852422113 -3.3727234536783044 907.7981663383233 -3.3727234536783044 907.7981663383233 C-3.3727234536783044 907.7981663383233 500.893617021277 729.7828716737806 500.893617021277 729.7828716737806 Z" vector-effect="non-scaling-stroke"/></defs><g transform="translate(320.65365233279533, -615.9407075969016)"><path style="stroke: rgb(140, 140, 140); stroke-width: 0; stroke-linecap: butt; stroke-linejoin: miter; fill: rgb(119, 171, 57);" d="M500.893617021277 729.7828716737806 C500.893617021277 729.7828716737806 575.1671732522792 668.2837162837164 575.1671732522792 668.2837162837164 C575.1671732522792 668.2837162837164 1573.3313069908813 504.14385614385617 1458.2978723404262 757.1928071928071 C1343.2644376899696 1010.2417582417582 1277.949217881237 1690.8321062500152 472.8145896656532 1582.2891787638205 C-332.3200385499302 1473.7462512776247 -320.6443768996957 1581.3523586461386 -320.6443768996957 1581.3523586461386 C-320.6443768996957 1581.3523586461386 -10.961351224454498 1374.0417852422113 -10.961351224454498 1374.0417852422113 C-10.961351224454498 1374.0417852422113 -3.3727234536783044 907.7981663383233 -3.3727234536783044 907.7981663383233 C-3.3727234536783044 907.7981663383233 500.893617021277 729.7828716737806 500.893617021277 729.7828716737806 Z" vector-effect="non-scaling-stroke"/></g></g></svg>