<svg version="1.2" xmlns="http://www.w3.org/2000/svg" xmlns:xlink="http://www.w3.org/1999/xlink" overflow="visible" preserveAspectRatio="none" viewBox="0 0 2015 752" width="2015" height="752"><g transform="translate(0, 0)"><defs><path id="path-1672941257770793" d="M-13 882.4722921914358 C-13 882.4722921914358 58 876.7972292191437 49 983.6775818639799 C40 1090.557934508816 -177 1854.7997481108314 804 1571.046599496222 C1785 1287.2934508816122 2002 1368.6360201511336 2002 1368.6360201511336 C2002 1368.6360201511336 1994 882 1994 882 C1994 882 -13 882.4722921914358 -13 882.4722921914358 Z" vector-effect="non-scaling-stroke"/></defs><g transform="translate(13, -882)"><path style="stroke: rgb(140, 140, 140); stroke-width: 0; stroke-linecap: butt; stroke-linejoin: miter; fill: rgb(229, 19, 58);" d="M-13 882.4722921914358 C-13 882.4722921914358 58 876.7972292191437 49 983.6775818639799 C40 1090.557934508816 -177 1854.7997481108314 804 1571.046599496222 C1785 1287.2934508816122 2002 1368.6360201511336 2002 1368.6360201511336 C2002 1368.6360201511336 1994 882 1994 882 C1994 882 -13 882.4722921914358 -13 882.4722921914358 Z" vector-effect="non-scaling-stroke"/></g></g></svg>