<svg version="1.2" xmlns="http://www.w3.org/2000/svg" xmlns:xlink="http://www.w3.org/1999/xlink" overflow="visible" preserveAspectRatio="none" viewBox="0 0 3292 6933" width="3292" height="6933"><g transform="translate(0, 0)"><g transform="rotate(0) translate(2,-1025) translate(-146.0000000000001, 974.0574086680281) rotate(0)"><g transform="translate(348.92749838877404, -3671.6429481565774)"><path d="M-225.2009501187646 3717.5893500892594 C-65.79809057001066 3820.7497970844183 374.5999627921623 3567.457485889405 319.260102118632 4162.349396894887 C263.9202414451025 4757.241307900363 -78.94628664089663 5403.713442403414 60.60640549235227 5864.49677231518 C200.15909762560128 6325.280102226943 734.6665820266609 6901.142034030272 1104 6124 C1473.3334179733401 5346.857965969714 1889.9765460459814 5433.116875078933 2004.2653887413146 5832.003936793595 C2118.5542314366494 6230.890998508243 2092.087341549306 7104.316116400685 2440.9690718824277 6643.532786488907 C2789.8508022155575 6182.74945657715 2942.636939292471 5453.7489644779735 2942.636939292471 5453.7489644779735 C2942.636939292471 5453.7489644779735 2947.5827088097603 10546.436364472831 2930.7401425178145 10546.436364472831 C2913.897576225866 10546.436364472831 -337.9207585687152 10604.893951103475 -337.9207585687152 10604.893951103475 C-337.9207585687152 10604.893951103475 -369.3334179733393 3717.2147733926063 -326.0239617940555 3717.2147733926063 C-282.71450561477116 3717.2147733926063 -384.6038096675186 3614.428903094084 -225.2009501187646 3717.5893500892594 Z" style="stroke: rgb(140, 140, 140); stroke-width: 0; stroke-linecap: butt; stroke-linejoin: miter; fill: rgb(229, 19, 58);" vector-effect="non-scaling-stroke"/></g></g><defs><path id="path-1672764055502901371" d="M-225.2009501187646 3717.5893500892594 C-65.79809057001066 3820.7497970844183 374.5999627921623 3567.457485889405 319.260102118632 4162.349396894887 C263.9202414451025 4757.241307900363 -78.94628664089663 5403.713442403414 60.60640549235227 5864.49677231518 C200.15909762560128 6325.280102226943 734.6665820266609 6901.142034030272 1104 6124 C1473.3334179733401 5346.857965969714 1889.9765460459814 5433.116875078933 2004.2653887413146 5832.003936793595 C2118.5542314366494 6230.890998508243 2092.087341549306 7104.316116400685 2440.9690718824277 6643.532786488907 C2789.8508022155575 6182.74945657715 2942.636939292471 5453.7489644779735 2942.636939292471 5453.7489644779735 C2942.636939292471 5453.7489644779735 2947.5827088097603 10546.436364472831 2930.7401425178145 10546.436364472831 C2913.897576225866 10546.436364472831 -337.9207585687152 10604.893951103475 -337.9207585687152 10604.893951103475 C-337.9207585687152 10604.893951103475 -369.3334179733393 3717.2147733926063 -326.0239617940555 3717.2147733926063 C-282.71450561477116 3717.2147733926063 -384.6038096675186 3614.428903094084 -225.2009501187646 3717.5893500892594 Z" vector-effect="non-scaling-stroke"/></defs></g></svg>