<svg version="1.2" xmlns="http://www.w3.org/2000/svg" xmlns:xlink="http://www.w3.org/1999/xlink" overflow="visible" preserveAspectRatio="none" viewBox="-0.5130000000000017 0 54 54" width="18" height="18"><g>
	<g>
		<path d="M52,44H8v-6.4l41.2-10.3c0.5-0.1,0.8-0.6,0.7-1.2c0,0,0-0.1,0-0.1V10c0-0.6-0.4-1-1-1H8V1c0-0.6-0.4-1-1-1H1    C0.4,0,0,0.4,0,1s0.4,1,1,1h5v43c0,0.6,0.4,1,1,1h45c0.6,0,1-0.4,1-1C53,44.4,52.6,44,52,44z M8,11h40v14.6l-40,10V11z M13.5,47    c-1.9,0-3.5,1.6-3.5,3.5c0,1.9,1.6,3.5,3.5,3.5s3.5-1.6,3.5-3.5C17,48.6,15.4,47,13.5,47z M13.5,52c-0.8,0-1.5-0.7-1.5-1.5    c0-0.8,0.7-1.5,1.5-1.5s1.5,0.7,1.5,1.5C15,51.3,14.3,52,13.5,52z M46.5,47c-1.9,0-3.5,1.6-3.5,3.5c0,1.9,1.6,3.5,3.5,3.5    s3.5-1.6,3.5-3.5C50,48.6,48.4,47,46.5,47z M46.5,52c-0.8,0-1.5-0.7-1.5-1.5c0-0.8,0.7-1.5,1.5-1.5s1.5,0.7,1.5,1.5    C48,51.3,47.3,52,46.5,52z" style="fill: rgb(255, 255, 255);" vector-effect="non-scaling-stroke"/>
	</g>
</g><g/></svg>