<svg version="1.2" xmlns="http://www.w3.org/2000/svg" xmlns:xlink="http://www.w3.org/1999/xlink" overflow="visible" preserveAspectRatio="none" viewBox="0 -3.5086505190311392 52 52" width="30" height="30"><g>
	<g>
		<path d="M52.4,10.5c-0.2-0.2-0.5-0.4-0.8-0.4H9.1L6.5,1c0,0,0,0,0,0C6.4,0.4,6,0,5.4,0L0.9,0.3C0.4,0.3,0,0.8,0,1.4    c0,0.5,0.5,0.9,1,0.9c0,0,0,0,0.1,0l3.6-0.2l8.2,28.7l0.4,1.6c0.1,0.4,0.5,0.7,1,0.7h32.3c0.5,0,0.9-0.3,1-0.8l5-20.9    C52.7,11.1,52.6,10.8,52.4,10.5z M45.8,31.1H15l-0.1-0.3l0,0L9.6,12.1h41L45.8,31.1z M19.1,35.1c-2.7,0-4.9,2.2-4.9,4.9    c0,2.7,2.2,4.9,4.9,4.9S24,42.8,24,40C24,37.3,21.8,35.1,19.1,35.1z M19.1,42.9c-1.6,0-2.9-1.3-2.9-2.9s1.3-2.9,2.9-2.9    c1.6,0,2.9,1.3,2.9,2.9S20.7,42.9,19.1,42.9z M41.1,35.1c-2.7,0-4.9,2.2-4.9,4.9c0,2.7,2.2,4.9,4.9,4.9s4.9-2.2,4.9-4.9    C45.9,37.3,43.7,35.1,41.1,35.1z M41.1,42.9c-1.6,0-2.9-1.3-2.9-2.9s1.3-2.9,2.9-2.9c1.6,0,2.9,1.3,2.9,2.9S42.6,42.9,41.1,42.9z" style="fill: rgb(219, 0, 50);" vector-effect="non-scaling-stroke"/>
	</g>
</g><g/></svg>