<svg version="1.2" xmlns="http://www.w3.org/2000/svg" xmlns:xlink="http://www.w3.org/1999/xlink" overflow="visible" preserveAspectRatio="none" viewBox="0 0 18.000000000000004 15.622641509433947" width="18.000000000000004" height="15.622641509433947"><g transform="translate(0, 0)"><g transform="translate(-1.3586354263850353e-14, 0) rotate(0)"><path d="M9.00362,15.62264l-0.6384,-0.50943c-3.79682,-2.95472 -6.08164,-4.72075 -7.39204,-7.03019c-0.97441,-1.69811 -1.20961,-3.39623 -0.7392,-4.8566c0.4032,-1.22264 1.27681,-2.20755 2.52002,-2.78491c0.6048,-0.30566 1.31041,-0.44151 2.01601,-0.44151c1.71361,0 3.32642,0.84906 4.20003,2.20755c0.90721,-1.35849 2.52002,-2.20755 4.23363,-2.20755c0.7056,0 1.41121,0.13585 2.04961,0.44151c1.20961,0.57736 2.11681,1.56226 2.52002,2.78491c0.4704,1.46038 0.2016,3.15849 -0.7392,4.8566c-1.31041,2.30943 -3.59522,4.10943 -7.39204,7.03019zM4.77,0.67925c-0.6048,0 -1.20961,0.13585 -1.74721,0.37358c-1.04161,0.47547 -1.81441,1.32453 -2.15041,2.37736c-0.4032,1.29057 -0.168,2.78491 0.7056,4.31321c1.20961,2.20755 3.46082,3.97358 7.19044,6.86038l0.2352,0.16981l0.2016,-0.16981c3.72962,-2.88679 5.98084,-4.65283 7.22404,-6.86038c0.87361,-1.5283 1.10881,-3.02264 0.7056,-4.31321c-0.336,-1.05283 -1.10881,-1.90189 -2.15041,-2.37736c-0.5712,-0.23774 -1.14241,-0.37358 -1.78081,-0.37358c-1.68001,0 -3.25922,0.95094 -3.89762,2.3434l-0.3024,0.67925l-0.3024,-0.67925c-0.672,-1.39245 -2.25121,-2.3434 -3.93122,-2.3434z" style="stroke-width: 0; stroke-linecap: butt; stroke-linejoin: miter; fill: rgb(255, 255, 255);" vector-effect="non-scaling-stroke"/></g><defs><path id="path-1671228305317247461" d="M9.00362,15.62264l-0.6384,-0.50943c-3.79682,-2.95472 -6.08164,-4.72075 -7.39204,-7.03019c-0.97441,-1.69811 -1.20961,-3.39623 -0.7392,-4.8566c0.4032,-1.22264 1.27681,-2.20755 2.52002,-2.78491c0.6048,-0.30566 1.31041,-0.44151 2.01601,-0.44151c1.71361,0 3.32642,0.84906 4.20003,2.20755c0.90721,-1.35849 2.52002,-2.20755 4.23363,-2.20755c0.7056,0 1.41121,0.13585 2.04961,0.44151c1.20961,0.57736 2.11681,1.56226 2.52002,2.78491c0.4704,1.46038 0.2016,3.15849 -0.7392,4.8566c-1.31041,2.30943 -3.59522,4.10943 -7.39204,7.03019zM4.77,0.67925c-0.6048,0 -1.20961,0.13585 -1.74721,0.37358c-1.04161,0.47547 -1.81441,1.32453 -2.15041,2.37736c-0.4032,1.29057 -0.168,2.78491 0.7056,4.31321c1.20961,2.20755 3.46082,3.97358 7.19044,6.86038l0.2352,0.16981l0.2016,-0.16981c3.72962,-2.88679 5.98084,-4.65283 7.22404,-6.86038c0.87361,-1.5283 1.10881,-3.02264 0.7056,-4.31321c-0.336,-1.05283 -1.10881,-1.90189 -2.15041,-2.37736c-0.5712,-0.23774 -1.14241,-0.37358 -1.78081,-0.37358c-1.68001,0 -3.25922,0.95094 -3.89762,2.3434l-0.3024,0.67925l-0.3024,-0.67925c-0.672,-1.39245 -2.25121,-2.3434 -3.93122,-2.3434z" vector-effect="non-scaling-stroke"/></defs></g></svg>