<svg version="1.2" xmlns="http://www.w3.org/2000/svg" xmlns:xlink="http://www.w3.org/1999/xlink" overflow="visible" preserveAspectRatio="none" viewBox="0 0 17.999999999999968 15.622641509433947" width="17.999999999999968" height="15.622641509433947"><g transform="translate(0, 0)"><g transform="translate(-5.370703881624195e-15, 0) rotate(0)"><path style="stroke-width: 0; stroke-linecap: butt; stroke-linejoin: miter; fill: rgb(255, 255, 255);" d="M9.00362,15.62264l-0.6384,-0.50943c-3.79682,-2.95472 -6.08164,-4.72075 -7.39204,-7.03019c-0.97441,-1.69811 -1.20961,-3.39623 -0.7392,-4.8566c0.4032,-1.22264 1.27681,-2.20755 2.52002,-2.78491c0.6048,-0.30566 1.31041,-0.44151 2.01601,-0.44151c1.71361,0 3.32642,0.84906 4.20003,2.20755c0.90721,-1.35849 2.52002,-2.20755 4.23363,-2.20755c0.7056,0 1.41121,0.13585 2.04961,0.44151c1.20961,0.57736 2.11681,1.56226 2.52002,2.78491c0.4704,1.46038 0.2016,3.15849 -0.7392,4.8566c-1.31041,2.30943 -3.59522,4.10943 -7.39204,7.03019z" vector-effect="non-scaling-stroke"/></g><defs><path id="path-1671229398228766101" d="M9.00362,15.62264l-0.6384,-0.50943c-3.79682,-2.95472 -6.08164,-4.72075 -7.39204,-7.03019c-0.97441,-1.69811 -1.20961,-3.39623 -0.7392,-4.8566c0.4032,-1.22264 1.27681,-2.20755 2.52002,-2.78491c0.6048,-0.30566 1.31041,-0.44151 2.01601,-0.44151c1.71361,0 3.32642,0.84906 4.20003,2.20755c0.90721,-1.35849 2.52002,-2.20755 4.23363,-2.20755c0.7056,0 1.41121,0.13585 2.04961,0.44151c1.20961,0.57736 2.11681,1.56226 2.52002,2.78491c0.4704,1.46038 0.2016,3.15849 -0.7392,4.8566c-1.31041,2.30943 -3.59522,4.10943 -7.39204,7.03019z" vector-effect="non-scaling-stroke"/></defs></g></svg>