<svg version="1.2" xmlns="http://www.w3.org/2000/svg" xmlns:xlink="http://www.w3.org/1999/xlink" overflow="visible" preserveAspectRatio="none" viewBox="0 0 1718 1" width="1718" height="1"><g transform="translate(0, 0)"><defs><path id="path-1670437034775154028" d="M0 0.5000000000000002 C0 0.22385762510000012 0.22385762510000012 0 0.5000000000000002 0 C0.5000000000000002 0 1717.4999999999982 0 1717.4999999999982 0 C1717.7761423748982 0 1717.9999999999982 0.22385762510000012 1717.9999999999982 0.5000000000000002 C1717.9999999999982 0.5000000000000002 1717.9999999999982 0.5000000000000002 1717.9999999999982 0.5000000000000002 C1717.9999999999982 0.7761423749000003 1717.7761423748982 1.0000000000000004 1717.4999999999982 1.0000000000000004 C1717.4999999999982 1.0000000000000004 0.5000000000000002 1.0000000000000004 0.5000000000000002 1.0000000000000004 C0.22385762510000012 1.0000000000000004 0 0.7761423749000003 0 0.5000000000000002 C0 0.5000000000000002 0 0.5000000000000002 0 0.5000000000000002 Z" vector-effect="non-scaling-stroke"/></defs><g transform="translate(0, 0)"><path d="M0 0.5000000000000002 C0 0.22385762510000012 0.22385762510000012 0 0.5000000000000002 0 C0.5000000000000002 0 1717.4999999999982 0 1717.4999999999982 0 C1717.7761423748982 0 1717.9999999999982 0.22385762510000012 1717.9999999999982 0.5000000000000002 C1717.9999999999982 0.5000000000000002 1717.9999999999982 0.5000000000000002 1717.9999999999982 0.5000000000000002 C1717.9999999999982 0.7761423749000003 1717.7761423748982 1.0000000000000004 1717.4999999999982 1.0000000000000004 C1717.4999999999982 1.0000000000000004 0.5000000000000002 1.0000000000000004 0.5000000000000002 1.0000000000000004 C0.22385762510000012 1.0000000000000004 0 0.7761423749000003 0 0.5000000000000002 C0 0.5000000000000002 0 0.5000000000000002 0 0.5000000000000002 Z" style="stroke: rgb(140, 140, 140); stroke-width: 0; stroke-linecap: butt; stroke-linejoin: miter; fill: rgb(255, 255, 255);" vector-effect="non-scaling-stroke"/></g></g></svg>