<svg version="1.2" xmlns="http://www.w3.org/2000/svg" xmlns:xlink="http://www.w3.org/1999/xlink" overflow="visible" preserveAspectRatio="none" viewBox="0 0 50.99999 50.99999" width="50.99999" height="50.99999"><g transform="translate(0, 0)"><g transform="translate(-0.000010000000003174137, 0) rotate(0)"><path d="M41.5152,0h-32.03039c-5.23577,0.00608 -9.47873,4.24904 -9.4848,9.4848v32.03039c0.00608,5.23577 4.24904,9.47873 9.4848,9.4848h32.03039c5.23577,-0.00608 9.47873,-4.24904 9.4848,-9.4848v-32.03039c-0.00608,-5.23577 -4.24904,-9.47873 -9.4848,-9.4848zM47.47931,9.4848v3.07504h-8.91892l-6.67044,-9.03915h9.62535c3.29229,0.00369 5.96033,2.67172 5.96401,5.96411zM27.5143,3.52069l6.67044,9.03915h-10.69904l-6.67044,-9.03915zM3.52069,9.4848c0.00369,-3.29229 2.67172,-5.96033 5.96411,-5.96411h2.95491l6.67044,9.03915h-15.58946zM41.5152,47.47931h-32.03039c-3.29229,-0.00369 -5.96033,-2.67172 -5.96411,-5.96411v-25.43456h43.95861v25.43456c-0.00379,3.29229 -2.67182,5.96033 -5.96411,5.96411zM35.1421,30.4446l-13.56935,-8.20368c-0.82038,-0.49595 -1.86932,-0.20163 -2.34294,0.65744c-0.15053,0.27308 -0.22982,0.58274 -0.22982,0.89809v16.40747c0,0.9919 0.76788,1.79609 1.71511,1.79609c0.30106,0 0.59687,-0.08293 0.85765,-0.24066l13.56935,-8.20378c0.82038,-0.49595 1.10144,-1.59435 0.62783,-2.45342c-0.15062,-0.27318 -0.36715,-0.49991 -0.62783,-0.65754zM22.43031,37.09305v-10.18585l8.42393,5.09282z" style="stroke-width: 0; stroke-linecap: butt; stroke-linejoin: miter; fill: rgb(255, 255, 255);" vector-effect="non-scaling-stroke"/></g><defs><path id="path-1673108540828188139" d="M41.5152,0h-32.03039c-5.23577,0.00608 -9.47873,4.24904 -9.4848,9.4848v32.03039c0.00608,5.23577 4.24904,9.47873 9.4848,9.4848h32.03039c5.23577,-0.00608 9.47873,-4.24904 9.4848,-9.4848v-32.03039c-0.00608,-5.23577 -4.24904,-9.47873 -9.4848,-9.4848zM47.47931,9.4848v3.07504h-8.91892l-6.67044,-9.03915h9.62535c3.29229,0.00369 5.96033,2.67172 5.96401,5.96411zM27.5143,3.52069l6.67044,9.03915h-10.69904l-6.67044,-9.03915zM3.52069,9.4848c0.00369,-3.29229 2.67172,-5.96033 5.96411,-5.96411h2.95491l6.67044,9.03915h-15.58946zM41.5152,47.47931h-32.03039c-3.29229,-0.00369 -5.96033,-2.67172 -5.96411,-5.96411v-25.43456h43.95861v25.43456c-0.00379,3.29229 -2.67182,5.96033 -5.96411,5.96411zM35.1421,30.4446l-13.56935,-8.20368c-0.82038,-0.49595 -1.86932,-0.20163 -2.34294,0.65744c-0.15053,0.27308 -0.22982,0.58274 -0.22982,0.89809v16.40747c0,0.9919 0.76788,1.79609 1.71511,1.79609c0.30106,0 0.59687,-0.08293 0.85765,-0.24066l13.56935,-8.20378c0.82038,-0.49595 1.10144,-1.59435 0.62783,-2.45342c-0.15062,-0.27318 -0.36715,-0.49991 -0.62783,-0.65754zM22.43031,37.09305v-10.18585l8.42393,5.09282z" vector-effect="non-scaling-stroke"/></defs></g></svg>