<svg version="1.2" xmlns="http://www.w3.org/2000/svg" xmlns:xlink="http://www.w3.org/1999/xlink" overflow="visible" preserveAspectRatio="none" viewBox="0 0 1919.999999999998 845.0000110163484" width="1919.999999999998" height="845.0000110163484"><g transform="translate(0, 0)"><g transform="translate(0, 7.878333402322468e-14) rotate(0)"><path d="M870.68151,60.94753c7.42,-11.0303 37.27,-4.44167 66.68,14.72349c5.83,3.81136 11.2,7.8197 16.02,11.89697c-3.4,-7.58333 -6.46,-16.42727 -8.85,-26.02955c-7.8,-31.31818 -5.54,-58.78561 5.05,-61.34621c10.59,-2.56061 25.51,20.76061 33.31,52.07879c2.05,8.21364 3.4,16.15152 4.09,23.44924c2.03,-5.43636 4.5,-11.05 7.4,-16.70303c15.9,-31.00303 38.51,-51.30076 50.51,-45.33258c12,5.96818 8.84,35.93712 -7.06,66.94015c-5.26554,10.27274 -11.26981,19.36905 -17.38224,26.72369h899.55073v737.65152h-1920v-737.65152l898.89699,0c-22.29221,-17.4523 -34.59947,-36.90227 -28.21548,-46.40096z" style="stroke: rgb(140, 140, 140); stroke-width: 0; stroke-linecap: butt; stroke-linejoin: miter; fill: rgb(219, 0, 50);" vector-effect="non-scaling-stroke"/></g><defs><path id="path-167311442695977626" d="M870.68151,60.94753c7.42,-11.0303 37.27,-4.44167 66.68,14.72349c5.83,3.81136 11.2,7.8197 16.02,11.89697c-3.4,-7.58333 -6.46,-16.42727 -8.85,-26.02955c-7.8,-31.31818 -5.54,-58.78561 5.05,-61.34621c10.59,-2.56061 25.51,20.76061 33.31,52.07879c2.05,8.21364 3.4,16.15152 4.09,23.44924c2.03,-5.43636 4.5,-11.05 7.4,-16.70303c15.9,-31.00303 38.51,-51.30076 50.51,-45.33258c12,5.96818 8.84,35.93712 -7.06,66.94015c-5.26554,10.27274 -11.26981,19.36905 -17.38224,26.72369h899.55073v737.65152h-1920v-737.65152l898.89699,0c-22.29221,-17.4523 -34.59947,-36.90227 -28.21548,-46.40096z" vector-effect="non-scaling-stroke"/></defs></g></svg>