<svg version="1.2" xmlns="http://www.w3.org/2000/svg" xmlns:xlink="http://www.w3.org/1999/xlink" overflow="visible" preserveAspectRatio="none" viewBox="0 0 1057 1156" width="1057" height="1156"><g transform="translate(0, 0)"><g transform="rotate(0) translate(-584,-205) translate(1683.392040499594, 587.4472670705557) rotate(115.82635697372662)"><g transform="translate(371.46596638992696, -295.13740413891065)"><path d="M-63.52666371603089 504 C178.61119943347794 191 685.6705473954582 234.67918412477385 685.6705473954582 602.2132196162044 C685.6705473954582 969.7472551076338 503.0846330471426 1258.7001652809759 325.645529766025 1331.850082640488 C148.2064264849076 1405 -573.270691333983 1589 -316.9970788704965 1267 C-60.723466407010726 945 -305.66452686553924 817 -63.52666371603089 504 Z" style="stroke: rgb(140, 140, 140); stroke-width: 0; stroke-linecap: butt; stroke-linejoin: miter; fill: rgb(229, 19, 58);" vector-effect="non-scaling-stroke"/></g></g><defs><path id="path-1671053063178360506" d="M-63.52666371603089 504 C178.61119943347794 191 685.6705473954582 234.67918412477385 685.6705473954582 602.2132196162044 C685.6705473954582 969.7472551076338 503.0846330471426 1258.7001652809759 325.645529766025 1331.850082640488 C148.2064264849076 1405 -573.270691333983 1589 -316.9970788704965 1267 C-60.723466407010726 945 -305.66452686553924 817 -63.52666371603089 504 Z" vector-effect="non-scaling-stroke"/></defs></g></svg>