<svg version="1.2" xmlns="http://www.w3.org/2000/svg" xmlns:xlink="http://www.w3.org/1999/xlink" overflow="visible" preserveAspectRatio="none" viewBox="0 0 486.9999982855415 239.00000429852514" width="486.9999982855415" height="239.00000429852514"><g transform="translate(0, 0)"><g transform="translate(0, -2.4216739724636227e-15) rotate(0)"><path d="M0,80.81296l388.86919,0c-20.04176,-13.39755 -32.14063,-30.38652 -27.05706,-38.07576c5.11811,-7.73459 25.70781,-3.11455 45.994,10.3243c4.02137,2.67258 7.72545,5.48327 11.05015,8.34231c-2.34523,-5.31753 -4.45593,-11.51902 -6.10448,-18.25225c-5.38022,-21.96071 -3.82134,-41.22123 3.48335,-43.01676c7.30469,-1.79553 17.59609,14.55761 22.97631,36.51832c1.41403,5.75951 2.34523,11.32565 2.82117,16.44291c1.40024,-3.81205 3.10397,-7.7484 5.10431,-11.71238c10.96738,-21.73973 26.56312,-35.97276 34.84039,-31.78779c8.27727,4.18497 6.09759,25.19957 -4.86979,46.9393c-5.0736,10.06247 -11.14153,18.51519 -17.01817,24.2778h26.7912v113.18705c0,24.85281 -20.14719,45 -45,45h-396.88057c-24.85281,0 -45,-20.14719 -45,-45z" style="stroke: rgb(140, 140, 140); stroke-width: 0; stroke-linecap: butt; stroke-linejoin: miter; fill: rgba(219, 0, 50, 0.6);" vector-effect="non-scaling-stroke"/></g><defs><path id="path-16705356274263724" d="M0,80.81296l388.86919,0c-20.04176,-13.39755 -32.14063,-30.38652 -27.05706,-38.07576c5.11811,-7.73459 25.70781,-3.11455 45.994,10.3243c4.02137,2.67258 7.72545,5.48327 11.05015,8.34231c-2.34523,-5.31753 -4.45593,-11.51902 -6.10448,-18.25225c-5.38022,-21.96071 -3.82134,-41.22123 3.48335,-43.01676c7.30469,-1.79553 17.59609,14.55761 22.97631,36.51832c1.41403,5.75951 2.34523,11.32565 2.82117,16.44291c1.40024,-3.81205 3.10397,-7.7484 5.10431,-11.71238c10.96738,-21.73973 26.56312,-35.97276 34.84039,-31.78779c8.27727,4.18497 6.09759,25.19957 -4.86979,46.9393c-5.0736,10.06247 -11.14153,18.51519 -17.01817,24.2778h26.7912v113.18705c0,24.85281 -20.14719,45 -45,45h-396.88057c-24.85281,0 -45,-20.14719 -45,-45z" vector-effect="non-scaling-stroke"/></defs></g></svg>