<svg version="1.2" xmlns="http://www.w3.org/2000/svg" xmlns:xlink="http://www.w3.org/1999/xlink" overflow="visible" preserveAspectRatio="none" viewBox="0 0 3292 7726.233536307866" width="3292" height="7726.233536307866"><g transform="translate(0, 0)"><g transform="rotate(0) translate(2,0) translate(-320, 54) rotate(0)"><g transform="translate(348.92749838877404, -4091.8839207209676)"><path d="M-225.2009501187646 4143.089156616177 C-65.79809057001066 4258.056919079517 374.5999627921623 3975.773824003118 319.260102118632 4638.754587541806 C263.9202414451025 5301.735351080494 -78.94628664089663 6022.199995850851 60.60640549235227 6535.722668187174 C200.15909762560128 7049.245340523498 665.2813685317823 7388.9506870420355 1034.6147865051214 6522.860209818096 C1403.9482044784615 5656.76973259414 1889.9765460459814 6054.968823070109 2004.2653887413146 6499.510837928435 C2118.5542314366494 6944.052852786729 2092.087341549306 7917.4465749764795 2440.9690718824277 7403.923902640136 C2789.8508022155575 6890.401230303815 2942.636939292471 6077.962375562782 2942.636939292471 6077.962375562782 C2942.636939292471 6077.962375562782 2947.5827088097603 11753.537582503815 2930.7401425178145 11753.537582503815 C2913.897576225866 11753.537582503815 -337.9207585687152 11818.685981233088 -337.9207585687152 11818.685981233088 C-337.9207585687152 11818.685981233088 -369.3334179733393 4142.671707429609 -326.0239617940555 4142.671707429609 C-282.71450561477116 4142.671707429609 -384.6038096675186 4028.1213941528126 -225.2009501187646 4143.089156616177 Z" style="stroke: rgb(140, 140, 140); stroke-width: 0; stroke-linecap: butt; stroke-linejoin: miter; fill: rgb(119, 171, 57);" vector-effect="non-scaling-stroke"/></g></g><defs><path id="path-167310243727862" d="M-225.2009501187646 4143.089156616177 C-65.79809057001066 4258.056919079517 374.5999627921623 3975.773824003118 319.260102118632 4638.754587541806 C263.9202414451025 5301.735351080494 -78.94628664089663 6022.199995850851 60.60640549235227 6535.722668187174 C200.15909762560128 7049.245340523498 665.2813685317823 7388.9506870420355 1034.6147865051214 6522.860209818096 C1403.9482044784615 5656.76973259414 1889.9765460459814 6054.968823070109 2004.2653887413146 6499.510837928435 C2118.5542314366494 6944.052852786729 2092.087341549306 7917.4465749764795 2440.9690718824277 7403.923902640136 C2789.8508022155575 6890.401230303815 2942.636939292471 6077.962375562782 2942.636939292471 6077.962375562782 C2942.636939292471 6077.962375562782 2947.5827088097603 11753.537582503815 2930.7401425178145 11753.537582503815 C2913.897576225866 11753.537582503815 -337.9207585687152 11818.685981233088 -337.9207585687152 11818.685981233088 C-337.9207585687152 11818.685981233088 -369.3334179733393 4142.671707429609 -326.0239617940555 4142.671707429609 C-282.71450561477116 4142.671707429609 -384.6038096675186 4028.1213941528126 -225.2009501187646 4143.089156616177 Z" vector-effect="non-scaling-stroke"/></defs></g></svg>